<?xml version="1.0" standalone="no"?>
<!DOCTYPE svg PUBLIC "-//W3C//DTD SVG 20010904//EN"
 "http://www.w3.org/TR/2001/REC-SVG-20010904/DTD/svg10.dtd">
<svg version="1.0" xmlns="http://www.w3.org/2000/svg"
 width="774.000000pt" height="774.000000pt" viewBox="0 0 774.000000 774.000000"
 preserveAspectRatio="xMidYMid meet">
<metadata>
Created by potrace 1.11, written by Peter Selinger 2001-2013
</metadata>
<g transform="translate(0.000000,774.000000) scale(0.100000,-0.100000)"
fill="#000000" stroke="none">
<path d="M3309 7733 c-1 -5 -1 -11 0 -15 0 -5 -5 -9 -11 -10 -7 0 -17 -2 -23
-2 -5 -1 -16 -5 -22 -9 -16 -10 -36 1 -27 14 8 13 -38 -12 -48 -26 -5 -7 -8
-7 -8 0 0 6 -5 3 -10 -5 -6 -9 -10 -10 -10 -3 0 7 -10 10 -27 7 -45 -8 -63
-15 -63 -24 0 -6 -10 -6 -24 0 -17 6 -26 5 -30 -3 -3 -8 -5 -7 -5 2 -1 10 -8
8 -26 -9 -14 -13 -25 -19 -25 -13 0 15 -40 9 -51 -8 -5 -8 -9 -10 -9 -6 0 4
-8 3 -18 -2 -11 -6 -24 -6 -35 0 -13 8 -17 6 -17 -7 0 -10 -3 -14 -7 -11 -3 4
-13 1 -21 -6 -13 -9 -14 -9 -8 0 5 9 2 11 -8 7 -9 -3 -16 -10 -16 -14 0 -4
-13 -7 -29 -6 -17 1 -28 -1 -25 -5 5 -9 -25 -21 -36 -14 -5 3 -11 1 -15 -5 -4
-6 -11 -8 -16 -5 -5 4 -9 1 -9 -6 0 -7 -8 -9 -21 -6 -13 3 -22 0 -26 -10 -3
-8 -14 -13 -24 -10 -10 3 -26 -3 -37 -13 -13 -12 -24 -15 -35 -8 -12 6 -20 3
-28 -11 -7 -10 -19 -17 -26 -14 -7 3 -13 0 -13 -7 0 -6 -4 -8 -10 -5 -5 3 -10
0 -10 -7 0 -8 -3 -9 -8 -3 -9 13 -35 19 -28 6 7 -10 -22 -24 -34 -16 -5 3 -12
0 -16 -6 -4 -8 -3 -9 4 -5 7 4 12 5 12 2 0 -11 -72 -36 -84 -29 -6 3 -8 3 -4
-1 13 -15 -16 -35 -34 -25 -12 6 -18 6 -18 0 0 -10 -38 -27 -52 -23 -4 1 -4
-6 -1 -16 6 -15 5 -15 -10 -3 -14 11 -18 11 -23 -3 -4 -10 -12 -15 -19 -12 -7
2 -23 -9 -36 -25 -15 -20 -25 -26 -30 -18 -5 8 -10 5 -18 -9 -7 -13 -17 -19
-26 -16 -8 4 -15 1 -15 -6 0 -7 -8 -10 -20 -7 -11 3 -18 0 -17 -7 1 -6 -8 -11
-21 -10 -12 0 -21 -4 -19 -10 2 -6 -13 -19 -32 -29 -20 -10 -41 -24 -46 -30
-16 -18 -56 -39 -62 -33 -3 3 -16 -6 -29 -21 -13 -15 -26 -25 -29 -21 -3 3
-24 -12 -46 -33 -23 -22 -44 -37 -49 -34 -4 3 -15 -6 -24 -19 -8 -14 -26 -28
-38 -32 -12 -3 -33 -20 -47 -35 -14 -16 -32 -29 -39 -29 -8 0 -39 -25 -69 -56
-30 -30 -57 -53 -60 -51 -6 7 -373 -362 -373 -374 0 -6 -22 -33 -50 -59 -27
-26 -50 -53 -50 -60 0 -13 -51 -66 -61 -63 -3 1 -6 -4 -6 -12 0 -8 5 -12 11
-9 6 3 3 -1 -6 -9 -10 -8 -14 -17 -10 -21 4 -4 1 -6 -6 -4 -7 1 -20 -10 -30
-26 -9 -16 -29 -42 -44 -57 -14 -15 -29 -37 -33 -48 -3 -10 -12 -22 -20 -25
-8 -3 -15 -17 -15 -31 0 -14 -3 -24 -8 -23 -4 2 -9 -1 -10 -7 -10 -28 -24 -45
-37 -45 -8 0 -12 -6 -9 -13 5 -14 -29 -60 -40 -52 -3 3 -2 0 4 -7 6 -8 3 -17
-11 -29 -11 -10 -20 -20 -20 -23 3 -21 0 -26 -11 -20 -6 4 -8 3 -4 -4 10 -16
-25 -81 -47 -88 -14 -4 -16 -8 -7 -14 9 -6 7 -13 -9 -29 -12 -12 -19 -26 -16
-31 4 -6 -1 -13 -10 -16 -12 -5 -13 -10 -4 -20 8 -10 7 -12 -9 -9 -14 2 -19
-2 -18 -18 1 -12 6 -29 10 -37 5 -8 6 -12 1 -8 -9 9 -35 -9 -35 -24 0 -5 6 -6
12 -3 7 4 2 -3 -12 -15 -14 -12 -18 -18 -10 -14 12 6 13 5 3 -8 -7 -8 -9 -19
-5 -23 4 -5 1 -5 -5 -1 -8 4 -13 1 -13 -7 0 -8 -6 -20 -14 -26 -8 -7 -12 -21
-9 -31 3 -13 -1 -22 -12 -26 -10 -4 -13 -9 -6 -13 7 -5 4 -15 -10 -30 -14 -15
-18 -26 -11 -34 10 -12 -10 -42 -21 -31 -2 3 -3 -9 -1 -25 2 -17 -2 -33 -8
-37 -7 -5 -8 -2 -3 7 5 8 4 10 0 6 -12 -10 -16 -39 -5 -32 4 3 3 -6 -3 -19 -7
-13 -15 -23 -18 -20 -3 2 -5 -10 -3 -26 2 -17 0 -29 -4 -29 -19 3 -25 -2 -12
-11 12 -8 13 -12 2 -19 -8 -4 -13 -12 -13 -17 1 -5 -5 -9 -11 -9 -7 0 -12 6
-10 13 1 8 -2 11 -9 6 -9 -5 -7 -12 8 -23 16 -13 18 -22 10 -44 -5 -15 -12
-27 -17 -27 -5 0 -7 -11 -4 -24 2 -13 -3 -40 -11 -60 -9 -22 -11 -36 -5 -36 6
0 3 -11 -6 -25 -9 -14 -21 -22 -28 -18 -6 4 -5 0 2 -9 9 -11 10 -18 2 -23 -6
-3 -7 -12 -3 -18 11 -18 12 -37 3 -37 -5 0 -9 -10 -9 -22 0 -13 -1 -33 -1 -45
0 -13 -5 -23 -10 -23 -6 0 -9 -3 -9 -7 3 -20 -2 -34 -11 -28 -6 3 -7 -1 -4 -9
3 -9 10 -14 14 -11 5 3 6 -4 3 -15 -3 -11 -10 -20 -17 -20 -7 0 -6 -3 2 -8 7
-5 10 -16 6 -26 -5 -14 -9 -15 -16 -4 -6 9 -8 8 -6 -7 1 -11 -1 -26 -6 -34 -6
-9 -5 -12 1 -8 6 4 10 -4 11 -18 0 -16 -5 -22 -12 -18 -6 4 -4 -4 5 -17 16
-25 15 -55 -1 -45 -5 3 -9 -183 -9 -425 1 -390 2 -431 17 -440 11 -6 12 -9 4
-10 -7 0 -10 -5 -7 -10 3 -5 0 -10 -7 -10 -9 0 -10 -2 -2 -8 15 -9 21 -43 11
-60 -5 -7 -2 -19 8 -28 11 -12 13 -20 5 -29 -7 -9 -6 -16 4 -24 17 -14 10 -44
-8 -36 -6 3 -4 0 5 -6 15 -11 15 -14 -4 -29 -14 -12 -17 -19 -8 -24 7 -5 10
-2 9 5 -2 7 4 14 13 16 13 3 16 -5 15 -44 -1 -35 4 -52 17 -61 12 -10 15 -17
8 -26 -6 -7 -6 -17 -1 -26 5 -9 5 -19 -2 -27 -8 -10 -6 -13 7 -13 11 0 15 -5
11 -15 -3 -8 0 -15 7 -15 7 0 8 -3 2 -8 -14 -10 -17 -32 -4 -32 5 0 7 -4 4
-10 -3 -5 -1 -10 5 -10 6 0 8 -4 5 -10 -3 -5 -1 -10 4 -10 6 0 11 -5 11 -11 0
-5 -4 -8 -9 -5 -5 4 -8 -2 -6 -11 1 -10 7 -17 13 -16 6 2 9 -10 7 -27 -2 -17
-1 -30 3 -30 14 0 30 -48 20 -58 -7 -7 -2 -12 12 -17 17 -5 19 -10 10 -21 -9
-10 -9 -17 3 -28 8 -8 18 -12 22 -8 4 4 2 -3 -4 -15 -10 -19 -8 -26 9 -43 16
-16 18 -25 10 -40 -9 -16 -8 -20 5 -20 9 0 13 -4 10 -10 -3 -5 -1 -10 6 -10
10 0 10 -3 2 -11 -8 -8 -6 -16 8 -30 10 -10 16 -25 13 -34 -4 -9 0 -15 10 -15
12 0 14 -5 6 -25 -7 -20 -6 -25 5 -25 13 0 20 -18 16 -42 0 -5 4 -8 9 -8 6 0
10 -7 10 -16 0 -8 5 -12 10 -9 6 4 9 3 8 -2 -4 -17 14 -53 24 -47 7 4 7 0 0
-12 -7 -14 -7 -24 2 -36 7 -10 16 -15 19 -12 3 3 3 -3 0 -15 -3 -14 0 -23 11
-27 13 -5 14 -9 5 -21 -10 -11 -9 -13 2 -11 8 2 13 -2 12 -8 -1 -6 9 -23 22
-38 14 -16 22 -32 20 -36 -3 -4 2 -11 11 -14 9 -4 14 -13 10 -21 -3 -8 -2 -15
3 -15 5 0 14 -13 21 -30 7 -16 17 -30 22 -30 5 0 7 -4 3 -9 -3 -5 6 -21 20
-35 14 -14 20 -26 14 -26 -7 0 -1 -10 12 -23 13 -13 27 -22 31 -20 3 2 4 -6 1
-17 -3 -11 0 -20 6 -20 6 0 11 -7 11 -15 0 -8 9 -23 20 -32 11 -10 20 -23 20
-29 0 -7 14 -26 30 -44 17 -18 30 -39 30 -47 0 -8 5 -11 10 -8 6 3 10 2 10 -4
0 -5 6 -16 13 -23 7 -7 24 -29 37 -48 14 -19 32 -43 40 -53 8 -10 15 -21 15
-25 0 -4 24 -30 52 -58 29 -29 50 -54 47 -57 -7 -6 365 -377 378 -377 5 0 32
-23 60 -50 28 -28 53 -48 56 -45 3 2 18 -9 33 -25 16 -16 42 -36 59 -45 17 -9
36 -24 43 -35 6 -11 18 -20 25 -20 8 0 27 -13 44 -30 16 -16 36 -30 43 -30 8
0 18 -6 22 -14 4 -8 15 -16 23 -18 8 -2 18 -7 22 -13 4 -5 11 -11 15 -11 26
-5 52 -17 48 -23 -2 -4 11 -15 30 -24 19 -9 35 -22 35 -28 0 -6 7 -9 15 -5 8
3 15 2 15 -3 0 -9 54 -34 66 -31 4 1 10 -2 13 -7 3 -4 15 -15 25 -23 18 -13
19 -13 12 0 -5 8 3 3 16 -12 14 -16 33 -28 42 -28 9 0 16 -4 16 -10 0 -5 7
-10 16 -10 9 0 23 -8 30 -17 9 -12 13 -13 14 -5 0 10 3 10 14 0 8 -7 11 -17 8
-23 -2 -5 1 -5 8 2 14 12 60 -2 60 -19 0 -5 4 -7 10 -3 9 6 40 -9 74 -35 17
-13 19 -13 12 0 -4 8 1 6 11 -6 10 -11 27 -19 38 -18 11 2 25 -2 30 -9 11 -13
29 -19 60 -21 11 -1 26 -8 32 -18 8 -9 21 -14 33 -11 12 3 22 -1 26 -11 5 -12
10 -13 25 -5 13 7 19 6 19 -1 0 -6 4 -8 10 -5 6 3 10 1 10 -5 0 -6 5 -8 10 -5
6 3 10 1 10 -6 0 -9 3 -9 14 0 11 10 16 8 21 -9 5 -17 10 -19 21 -9 10 8 14 8
14 1 0 -6 6 -9 14 -6 7 3 16 -3 20 -13 6 -15 8 -15 16 -3 8 12 10 12 10 1 0
-7 6 -11 15 -7 9 3 15 -1 15 -11 0 -13 3 -13 15 -3 11 9 15 9 15 1 0 -8 5 -9
19 -1 16 8 21 6 26 -11 6 -17 9 -19 16 -8 6 9 9 10 9 2 0 -7 9 -10 20 -8 27 5
52 -4 44 -17 -5 -7 -1 -7 11 0 11 5 30 6 46 2 15 -5 31 -5 35 -2 4 4 5 0 1
-10 -5 -13 0 -15 24 -11 19 3 29 0 30 -9 0 -7 4 -5 7 5 7 17 9 17 28 -2 14
-12 26 -16 35 -11 7 5 17 6 22 3 17 -10 52 -9 59 2 4 5 8 -1 8 -15 0 -20 2
-22 10 -10 9 13 10 13 10 0 0 -13 1 -13 10 0 9 14 15 7 11 -14 -1 -5 5 -3 14
4 14 12 18 11 26 -1 6 -10 9 -11 9 -1 0 7 5 10 10 7 6 -3 10 0 10 7 0 8 3 9 8
3 11 -15 32 -17 32 -3 0 8 5 6 11 -4 9 -16 43 -17 419 -17 226 0 410 4 410 8
0 9 71 8 87 -2 9 -6 11 -3 7 7 -5 13 -1 14 25 6 18 -5 31 -5 33 1 2 6 10 11
18 12 8 2 21 6 27 10 7 5 13 4 13 0 0 -10 37 -9 62 2 10 4 15 12 11 19 -4 6 0
6 9 -2 12 -9 18 -10 23 -2 4 7 11 8 18 1 17 -14 29 -14 37 -1 4 6 13 12 21 13
8 2 20 6 26 10 7 5 13 4 13 -1 0 -6 11 -9 24 -8 13 0 22 4 19 9 -4 6 12 11 30
8 4 0 7 3 7 9 0 6 9 6 25 0 19 -7 25 -6 25 5 0 10 10 13 36 11 29 -2 38 1 42
16 4 15 7 16 20 6 18 -16 16 -16 35 1 9 7 15 17 12 21 -2 4 7 5 21 2 17 -3 30
2 40 14 9 11 12 13 8 5 -5 -10 -1 -11 17 -6 13 4 26 12 27 16 2 5 8 7 13 4 10
-7 50 13 61 29 5 7 8 7 8 -2 0 -10 9 -9 35 7 19 11 35 16 35 10 0 -6 7 -6 20
1 12 7 18 16 13 23 -5 8 -2 8 9 -1 13 -10 17 -10 22 3 3 9 10 13 16 10 5 -3
10 -1 10 6 0 8 4 8 15 -1 12 -10 16 -9 21 4 3 9 12 16 20 16 8 0 31 11 52 24
20 12 42 25 47 27 6 2 9 7 8 11 -1 3 11 3 27 -2 17 -5 29 -6 26 -2 -6 10 16
27 34 27 8 0 14 6 12 13 -1 8 2 11 7 8 15 -9 75 21 90 45 10 17 15 19 21 8 7
-11 10 -10 16 4 3 9 15 17 25 17 10 0 19 5 19 11 0 6 6 9 14 6 8 -3 17 1 20 9
3 8 12 14 19 14 8 0 27 11 43 25 15 13 30 22 32 20 2 -2 14 7 26 19 11 13 27
21 34 19 6 -3 12 0 12 6 0 6 7 11 14 11 8 0 27 11 42 25 14 13 30 23 33 20 4
-2 20 12 36 30 15 19 31 32 35 30 4 -3 25 11 45 30 21 19 41 33 44 32 4 -1 18
10 32 25 14 15 31 28 38 30 7 2 38 27 68 56 30 29 57 51 60 49 2 -3 87 79 189
180 132 132 183 190 179 201 -3 9 -3 14 0 11 3 -4 30 17 60 45 29 28 49 53 44
54 -6 2 10 23 35 47 24 24 42 46 38 49 -3 3 0 6 6 6 7 0 11 3 10 8 -3 8 25 49
65 95 15 18 25 37 23 44 -3 7 -1 12 5 10 5 -1 17 12 27 28 9 17 21 33 25 36 4
3 9 15 10 27 0 12 3 19 5 17 8 -7 32 23 32 40 0 8 6 18 14 21 8 3 23 26 33 50
10 24 22 44 26 44 5 0 6 4 3 8 -3 5 3 18 14 29 14 15 16 23 7 32 -7 7 -7 11
-1 11 15 0 55 36 48 43 -4 3 1 14 11 23 13 14 14 19 3 25 -10 7 -9 9 5 9 10 0
16 4 12 9 -3 5 -1 12 5 16 6 4 7 11 4 17 -4 6 -2 8 4 4 6 -3 13 -2 17 4 3 5 2
10 -4 10 -6 0 3 28 20 63 16 34 34 61 39 60 5 -2 7 6 5 17 -2 11 1 20 7 20 6
0 8 11 6 25 -3 14 0 29 6 33 14 9 38 60 41 86 1 11 7 22 14 24 9 3 9 7 0 18
-8 10 -8 14 0 14 6 0 10 3 10 8 -3 19 2 25 11 12 7 -11 8 -6 4 16 -4 21 -1 36
11 47 13 13 14 21 4 38 -7 15 -8 19 0 15 6 -4 11 -2 11 4 0 6 4 9 9 6 5 -4 7
7 5 24 -3 16 -1 30 4 30 6 0 13 7 16 16 4 9 2 13 -5 8 -8 -4 -8 0 0 14 6 12
15 23 19 26 4 2 7 21 6 41 -2 26 2 35 11 31 14 -5 15 11 1 33 -6 10 -5 12 2 7
15 -9 15 -1 2 24 -9 16 -7 18 10 15 11 -2 20 0 20 6 0 5 -5 9 -10 9 -7 0 -8 7
-3 18 11 21 10 43 -1 61 -6 9 -5 12 2 7 6 -3 16 2 22 13 7 14 7 22 0 26 -8 5
-8 11 0 20 8 10 8 15 -1 21 -9 5 -7 11 6 20 21 15 28 54 11 54 -6 1 1 8 17 16
15 8 27 17 27 20 0 2 -9 0 -20 -6 -25 -14 -27 5 -4 39 14 19 14 25 3 32 -11 7
-9 9 6 9 13 0 16 3 8 8 -7 5 -10 19 -7 36 2 15 1 25 -3 23 -4 -3 -8 5 -8 18 0
13 3 21 6 19 16 -9 18 47 18 427 0 358 -2 404 -16 414 -13 10 -13 14 -3 20 9
6 11 4 5 -5 -5 -9 -4 -11 4 -6 9 6 9 11 1 21 -8 10 -8 15 0 20 8 5 8 11 0 20
-7 8 -9 19 -5 25 3 5 1 10 -5 10 -6 0 -8 5 -5 10 4 6 11 7 17 4 6 -4 6 0 -1
13 -6 11 -7 24 -3 28 4 5 2 5 -4 2 -14 -8 -37 17 -26 27 8 9 10 69 2 76 -15
14 -28 50 -21 55 5 3 8 13 7 23 -2 9 2 21 8 25 7 5 3 7 -9 5 -17 -3 -20 3 -20
40 0 23 -3 42 -7 42 -4 0 -5 7 -2 15 4 10 0 15 -11 15 -14 0 -15 3 -5 15 10
12 10 15 -1 15 -12 0 -12 2 -1 9 20 12 19 18 -1 33 -18 13 -24 39 -16 68 2 8
-1 14 -8 13 -6 -1 -14 4 -17 12 -3 8 -2 15 3 15 4 0 8 7 8 15 0 9 -6 14 -12
11 -7 -2 -11 6 -10 25 1 16 -2 29 -7 29 -5 0 -6 5 -3 10 3 6 1 10 -5 10 -6 0
-8 5 -5 10 3 6 0 10 -7 10 -9 0 -9 3 2 10 11 7 11 10 2 10 -7 0 -11 4 -8 9 3
5 -1 12 -9 15 -12 4 -13 10 -5 25 14 27 13 31 -5 24 -12 -4 -15 0 -11 20 3 17
-1 27 -11 31 -10 4 -14 16 -11 36 3 23 0 31 -14 36 -15 5 -17 9 -7 20 10 12 9
13 -4 8 -12 -4 -15 -1 -12 15 2 11 -1 23 -6 26 -5 4 -7 10 -4 15 3 5 1 11 -5
15 -6 4 -8 11 -5 16 4 5 1 9 -5 9 -6 0 -9 4 -6 9 3 5 -1 12 -10 15 -9 4 -14 9
-11 13 4 3 2 12 -4 20 -6 7 -8 13 -4 13 5 0 -1 8 -13 18 -13 12 -18 23 -12 32
5 8 3 19 -6 27 -8 8 -12 19 -9 24 4 5 1 9 -5 9 -11 0 -36 58 -32 73 1 4 -5 7
-14 7 -8 0 -13 4 -10 9 3 4 -3 16 -14 26 -16 15 -18 21 -7 33 9 13 9 14 0 8
-8 -4 -13 -2 -13 4 0 6 -5 8 -10 5 -6 -4 -10 -3 -9 2 1 4 -2 23 -6 41 -6 24
-10 30 -16 20 -6 -9 -9 -7 -9 9 0 12 -10 31 -22 43 -12 11 -19 23 -15 26 3 4
-6 18 -22 33 -15 14 -26 32 -24 39 3 6 0 12 -6 12 -6 0 -10 3 -10 8 3 19 -2
33 -10 27 -5 -3 -12 4 -16 15 -3 11 -11 20 -16 20 -6 0 -7 5 -4 10 4 6 -8 24
-26 41 -17 16 -29 32 -26 35 8 8 -25 44 -35 38 -4 -3 -8 2 -8 11 0 8 -7 18
-15 21 -8 4 -13 10 -10 15 3 4 -8 21 -25 37 -16 16 -30 34 -30 40 0 6 -24 35
-52 65 -29 29 -54 59 -55 65 -3 14 -373 382 -382 379 -3 -1 -28 20 -56 46 -27
26 -53 47 -57 47 -4 0 -26 16 -48 36 -22 20 -40 33 -40 28 0 -5 -13 6 -29 23
-16 18 -31 30 -33 28 -2 -2 -22 11 -43 30 -22 19 -43 35 -46 35 -3 0 -16 9
-29 20 -12 11 -26 17 -30 15 -4 -3 -11 2 -14 10 -3 8 -9 14 -13 13 -14 -5 -72
35 -66 45 3 6 1 7 -5 3 -7 -4 -23 4 -37 18 -14 14 -28 26 -30 26 -3 0 -6 0 -7
1 -2 0 -12 2 -23 4 -11 2 -21 9 -23 14 -2 6 -12 11 -22 11 -10 0 -20 5 -22 10
-2 6 -13 12 -25 13 -12 0 -24 10 -27 20 -2 11 -11 17 -18 15 -7 -3 -19 1 -26
9 -8 7 -18 10 -24 7 -7 -4 -8 -2 -4 4 4 7 1 12 -9 12 -9 0 -14 4 -11 9 4 5 -3
7 -14 4 -12 -3 -20 0 -20 6 0 7 -4 9 -10 6 -5 -3 -10 -1 -10 6 0 9 -3 9 -14 0
-11 -9 -15 -8 -20 5 -3 9 -13 14 -20 11 -8 -3 -17 1 -20 9 -3 9 -10 13 -16 9
-5 -3 -18 3 -28 13 -10 10 -24 16 -30 14 -7 -2 -12 5 -13 15 0 11 -3 13 -6 5
-4 -10 -8 -10 -21 0 -13 11 -14 11 -7 -2 7 -12 6 -13 -7 -3 -8 7 -19 9 -23 5
-5 -4 -5 -2 -2 4 4 7 -3 14 -18 18 -14 4 -24 10 -21 15 6 9 -25 8 -42 -3 -8
-5 -12 -1 -12 12 0 15 -5 18 -23 15 -14 -3 -31 2 -40 11 -10 10 -17 12 -19 5
-3 -8 -9 -7 -19 3 -8 8 -22 14 -32 12 -9 -1 -17 3 -17 9 0 5 -3 7 -7 4 -3 -4
-17 0 -29 8 -17 11 -24 12 -27 2 -4 -9 -6 -9 -6 1 -1 6 -8 12 -16 12 -8 0 -15
6 -15 13 0 8 -4 7 -10 -3 -6 -10 -10 -11 -10 -2 0 6 -3 11 -7 11 -20 -3 -34 2
-28 10 5 9 -40 5 -55 -4 -3 -2 -12 4 -20 15 -10 14 -21 17 -46 13 -25 -4 -35
-1 -40 10 -5 14 -43 15 -64 2 -4 -2 -16 4 -26 14 -20 18 -49 21 -70 8 -6 -3
-20 2 -31 13 -16 14 -23 16 -33 7 -10 -9 -11 -9 -6 1 6 10 1 11 -20 6 -21 -5
-25 -4 -20 7 4 8 1 6 -6 -3 -13 -15 -15 -15 -25 1 -6 10 -22 16 -39 15 -16 -1
-35 4 -43 10 -12 8 -13 8 -7 -2 6 -9 1 -12 -16 -10 -12 2 -29 7 -36 11 -7 5
-12 5 -11 0 3 -20 -2 -23 -16 -9 -13 13 -72 15 -420 15 -223 0 -405 -3 -405
-7 0 -11 -92 -9 -109 2 -10 6 -12 6 -7 -2 5 -8 -1 -12 -14 -12 -12 0 -18 5
-15 10 3 6 4 10 1 10 -3 0 -7 -3 -7 -7z"/>
<path d="M5119 7653 c-13 -16 -12 -17 4 -4 9 7 17 15 17 17 0 8 -8 3 -21 -13z"/>
<path d="M2716 7622 c-3 -5 1 -9 9 -9 8 0 12 4 9 9 -3 4 -7 8 -9 8 -2 0 -6 -4
-9 -8z"/>
<path d="M159 5453 c-13 -16 -12 -17 4 -4 9 7 17 15 17 17 0 8 -8 3 -21 -13z"/>
<path d="M110 5261 c0 -6 4 -13 10 -16 6 -3 7 1 4 9 -7 18 -14 21 -14 7z"/>
<path d="M35 5231 c-3 -5 -2 -12 3 -15 5 -3 9 1 9 9 0 17 -3 19 -12 6z"/>
<path d="M7720 5140 c-9 -6 -10 -10 -3 -10 6 0 15 5 18 10 8 12 4 12 -15 0z"/>
<path d="M7710 5021 c0 -6 4 -13 10 -16 6 -3 7 1 4 9 -7 18 -14 21 -14 7z"/>
<path d="M50 4959 c0 -5 5 -7 10 -4 6 3 10 8 10 11 0 2 -4 4 -10 4 -5 0 -10
-5 -10 -11z"/>
<path d="M95 4961 c-3 -5 -2 -12 3 -15 5 -3 9 1 9 9 0 17 -3 19 -12 6z"/>
<path d="M15 4921 c-3 -5 -2 -12 3 -15 5 -3 9 1 9 9 0 17 -3 19 -12 6z"/>
<path d="M10 4879 c0 -5 5 -7 10 -4 6 3 10 8 10 11 0 2 -4 4 -10 4 -5 0 -10
-5 -10 -11z"/>
<path d="M10 4839 c0 -5 5 -7 10 -4 6 3 10 8 10 11 0 2 -4 4 -10 4 -5 0 -10
-5 -10 -11z"/>
<path d="M50 4839 c0 -5 5 -7 10 -4 6 3 10 8 10 11 0 2 -4 4 -10 4 -5 0 -10
-5 -10 -11z"/>
<path d="M15 4800 c-3 -5 -1 -10 4 -10 6 0 11 5 11 10 0 6 -2 10 -4 10 -3 0
-8 -4 -11 -10z"/>
<path d="M50 4800 c0 -5 5 -10 11 -10 5 0 7 5 4 10 -3 6 -8 10 -11 10 -2 0 -4
-4 -4 -10z"/>
<path d="M7695 4800 c-3 -5 -1 -10 4 -10 6 0 11 5 11 10 0 6 -2 10 -4 10 -3 0
-8 -4 -11 -10z"/>
<path d="M7719 4718 c-5 -18 -6 -38 -1 -34 7 8 12 36 6 36 -2 0 -4 -1 -5 -2z"/>
<path d="M10 4620 c0 -5 5 -10 11 -10 5 0 7 5 4 10 -3 6 -8 10 -11 10 -2 0 -4
-4 -4 -10z"/>
<path d="M7707 4579 c7 -7 15 -10 18 -7 3 3 -2 9 -12 12 -14 6 -15 5 -6 -5z"/>
<path d="M7706 3102 c-3 -5 1 -9 9 -9 8 0 12 4 9 9 -3 4 -7 8 -9 8 -2 0 -6 -4
-9 -8z"/>
<path d="M7715 2580 c3 -5 8 -10 11 -10 2 0 4 5 4 10 0 6 -5 10 -11 10 -5 0
-7 -4 -4 -10z"/>
<path d="M30 2099 c0 -5 5 -7 10 -4 6 3 10 8 10 11 0 2 -4 4 -10 4 -5 0 -10
-5 -10 -11z"/>
<path d="M2270 156 c0 -2 8 -10 18 -17 15 -13 16 -12 3 4 -13 16 -21 21 -21
13z"/>
<path d="M4993 25 c0 -8 4 -12 9 -9 5 3 6 10 3 15 -9 13 -12 11 -12 -6z"/>
<path d="M4510 21 c0 -6 4 -13 10 -16 6 -3 7 1 4 9 -7 18 -14 21 -14 7z"/>
</g>
</svg>
