<?xml version="1.0" standalone="no"?>
<!DOCTYPE svg PUBLIC "-//W3C//DTD SVG 20010904//EN"
 "http://www.w3.org/TR/2001/REC-SVG-20010904/DTD/svg10.dtd">
<svg version="1.0" xmlns="http://www.w3.org/2000/svg"
 width="540.000000pt" height="540.000000pt" viewBox="0 0 540.000000 540.000000"
 preserveAspectRatio="xMidYMid meet">
<metadata>
Created by potrace 1.11, written by Peter Selinger 2001-2013
</metadata>
<g transform="translate(0.000000,540.000000) scale(0.100000,-0.100000)"
fill="#000000" stroke="none">
<path d="M3016 3993 c-31 -8 -79 -38 -86 -53 -4 -8 -12 -24 -18 -35 -7 -11
-25 -47 -41 -80 -16 -33 -42 -75 -58 -94 -29 -34 -31 -34 -63 -21 -32 13 -78
73 -155 203 -23 39 -39 54 -72 66 -42 15 -43 15 -85 -15 -24 -16 -48 -41 -55
-54 -6 -13 -21 -28 -33 -32 -26 -10 -36 -36 -22 -59 14 -22 18 -114 7 -149
-15 -46 -58 -90 -88 -90 -43 0 -136 -69 -137 -101 0 -9 -7 -22 -15 -29 -8 -7
-15 -27 -15 -44 0 -17 -5 -38 -10 -46 -15 -24 -58 8 -110 84 -55 78 -94 116
-120 116 -61 0 -140 -61 -140 -107 0 -22 -18 -43 -36 -43 -16 0 -104 117 -104
138 -1 26 -42 69 -73 76 -62 15 -177 -88 -177 -158 0 -27 -6 -39 -29 -55 -16
-12 -35 -21 -43 -21 -16 0 -58 60 -58 82 0 10 -25 28 -64 48 -74 36 -73 34
-119 120 -59 109 -65 123 -89 185 -33 88 -54 115 -89 115 -17 0 -39 -5 -49
-10 -13 -7 -27 -6 -44 2 -41 18 -102 -7 -133 -54 -24 -36 -75 -73 -157 -114
-21 -10 -41 -26 -43 -34 -15 -43 -60 -131 -91 -180 -48 -73 -80 -143 -98 -209
-7 -29 -18 -59 -23 -65 -14 -17 -53 -154 -59 -206 -6 -56 -7 -178 -3 -389 3
-150 5 -167 24 -194 20 -27 41 -104 53 -204 3 -23 14 -49 25 -59 10 -9 19 -29
19 -43 0 -23 9 -46 56 -144 8 -16 14 -39 14 -51 0 -13 9 -31 20 -41 11 -10 20
-28 20 -41 0 -12 20 -52 45 -88 25 -37 45 -77 45 -89 0 -16 14 -35 40 -56 23
-18 52 -50 66 -71 32 -48 61 -59 146 -57 61 2 68 4 90 32 12 16 38 43 56 59
18 16 39 43 46 60 7 17 27 46 44 64 16 18 42 51 56 75 14 23 61 80 105 126 44
46 82 95 86 110 9 34 33 61 57 61 21 0 114 -83 123 -110 10 -31 47 -40 102
-24 58 17 83 41 122 115 15 30 34 55 43 57 8 2 35 -18 59 -43 107 -112 202
-98 315 45 26 33 52 59 58 57 6 -2 19 -20 29 -41 20 -43 37 -52 67 -36 18 10
29 6 71 -20 27 -18 61 -46 75 -64 14 -17 56 -57 92 -89 68 -59 108 -117 98
-143 -3 -8 6 -35 19 -61 14 -25 25 -54 25 -63 0 -29 37 -53 89 -58 48 -4 49
-4 80 42 18 26 45 71 61 101 51 96 196 261 239 272 14 3 38 18 52 32 54 53 80
64 94 40 5 -7 15 -5 32 6 13 9 30 14 37 12 8 -3 30 -34 49 -70 41 -72 51 -83
88 -92 34 -8 84 23 122 76 24 35 80 79 99 79 4 0 17 -18 28 -41 12 -22 48 -67
81 -101 97 -97 128 -92 303 54 38 32 75 58 82 58 7 0 32 -13 56 -30 24 -16 61
-42 83 -58 44 -30 85 -100 85 -144 0 -30 16 -42 71 -52 40 -7 53 -18 64 -54 4
-13 35 -51 68 -84 34 -33 69 -67 77 -76 8 -8 26 -25 39 -36 69 -58 97 -94 109
-139 10 -40 18 -50 47 -62 29 -13 38 -13 62 0 15 7 49 23 76 34 41 19 47 25
47 52 0 48 39 130 86 179 23 25 53 68 67 96 14 27 33 56 41 63 9 8 16 25 16
40 0 14 7 35 15 45 8 11 15 29 15 41 0 11 9 38 20 60 11 22 20 47 20 57 0 9 4
19 9 22 5 3 11 20 14 38 7 43 34 232 47 328 11 82 5 309 -11 435 -6 44 -14
107 -18 140 -4 33 -14 74 -23 90 -24 43 -67 141 -84 188 -8 22 -25 54 -38 71
-13 17 -30 45 -39 61 -9 17 -46 62 -84 101 -37 40 -77 85 -88 102 -45 68 -118
158 -137 168 -11 6 -28 29 -38 52 -11 23 -23 42 -28 42 -5 0 -22 12 -38 28
-27 25 -35 27 -99 26 -39 -1 -76 -2 -83 -3 -14 -1 -63 -103 -80 -166 -6 -22
-9 -50 -5 -63 7 -28 -17 -57 -70 -83 -46 -24 -71 -74 -87 -177 -8 -45 -18 -76
-26 -79 -20 -7 -74 32 -104 75 -30 43 -92 104 -144 143 -30 22 -50 29 -86 29
l-46 0 -20 -57 c-25 -76 -51 -82 -87 -21 -46 79 -106 117 -151 97 -13 -6 -40
-31 -61 -56 -29 -35 -36 -50 -32 -72 7 -31 2 -40 -35 -64 -33 -21 -38 -21 -38
-2 0 9 -7 18 -15 21 -17 7 -50 88 -41 103 4 6 2 29 -4 51 -8 31 -22 49 -60 76
-27 19 -52 44 -55 54 -3 11 -24 39 -46 62 -55 58 -82 112 -74 147 5 26 3 29
-26 35 -34 7 -54 6 -83 -1z m-2299 -314 c59 -50 82 -79 83 -101 0 -9 14 -29
30 -45 17 -15 35 -43 41 -60 6 -18 14 -33 19 -33 17 0 40 -32 40 -55 0 -15 10
-31 25 -41 14 -9 25 -24 25 -34 0 -10 7 -23 15 -30 8 -7 15 -18 15 -25 0 -7
26 -40 58 -73 68 -71 109 -85 163 -56 44 22 162 144 195 200 14 24 29 44 32
44 8 0 62 -66 62 -75 0 -17 106 -125 135 -140 42 -19 83 -11 95 19 14 37 71
116 83 116 7 0 23 -20 36 -44 25 -45 66 -76 114 -87 54 -13 95 9 178 92 53 53
86 79 102 79 25 0 60 33 101 95 47 72 59 90 84 117 14 15 28 44 31 64 8 48 34
66 56 39 9 -11 23 -33 31 -50 31 -62 70 -119 96 -138 l27 -20 56 24 c50 22
132 93 161 139 16 27 109 100 127 100 9 0 24 -15 33 -32 9 -18 22 -36 29 -40
7 -4 16 -23 19 -42 4 -19 14 -40 22 -47 23 -19 64 -105 64 -134 0 -18 -5 -25
-19 -25 -11 0 -23 5 -26 11 -4 6 -14 7 -24 3 -25 -10 -91 -4 -122 11 -64 34
-176 9 -204 -45 -20 -39 -41 -38 -102 3 -39 26 -68 36 -135 46 -92 14 -125 6
-173 -41 -11 -10 -29 -25 -39 -32 -19 -13 -19 -16 -6 -57 8 -24 23 -50 32 -58
10 -9 18 -22 18 -30 0 -24 32 -51 60 -51 36 0 80 -35 80 -64 0 -33 30 -55 84
-62 47 -7 48 -6 103 47 30 30 62 70 71 89 l15 35 11 -34 c7 -19 22 -38 34 -42
12 -5 22 -16 22 -24 0 -24 50 -105 64 -105 28 0 107 29 132 49 23 18 49 54 90
126 6 11 26 23 44 28 29 7 36 5 51 -15 16 -21 20 -22 53 -10 19 7 50 10 68 7
25 -5 37 -2 50 12 9 10 50 52 91 93 41 41 77 82 81 90 5 12 7 12 12 2 3 -7 17
-26 30 -41 13 -16 24 -36 24 -44 0 -17 75 -57 107 -57 21 0 49 28 112 114 18
25 38 46 44 46 14 0 125 -119 133 -142 3 -10 11 -18 19 -18 7 0 20 -11 29 -25
21 -32 39 -31 117 5 47 22 73 42 99 77 19 26 54 67 77 91 28 29 48 63 59 101
22 70 84 175 106 179 9 2 37 -6 62 -17 25 -12 50 -21 55 -21 6 0 21 -17 35
-37 13 -21 33 -47 45 -57 11 -11 21 -25 21 -32 0 -6 26 -41 58 -76 110 -122
124 -144 191 -302 12 -27 21 -59 21 -71 0 -12 6 -28 14 -34 13 -11 19 -40 30
-146 2 -22 10 -65 17 -95 7 -30 13 -77 14 -105 1 -27 5 -67 9 -89 6 -30 3 -42
-10 -58 -14 -15 -19 -38 -20 -101 -1 -101 -12 -180 -30 -223 -8 -18 -14 -44
-14 -58 0 -13 -11 -38 -25 -54 -14 -17 -25 -39 -25 -51 0 -26 -53 -146 -69
-155 -6 -4 -11 -14 -11 -23 0 -9 -16 -33 -35 -54 -19 -22 -35 -45 -35 -53 0
-7 -9 -25 -21 -40 -39 -49 -68 -35 -203 100 -61 60 -126 139 -126 151 0 5 -13
22 -29 37 -16 16 -32 38 -35 51 -4 17 -18 26 -52 36 -26 8 -49 21 -52 29 -8
21 -133 170 -143 170 -5 0 -23 13 -41 29 -24 21 -48 31 -88 36 -57 7 -110 -6
-110 -26 0 -6 -12 -20 -26 -31 -14 -11 -36 -37 -49 -58 -26 -41 -79 -72 -106
-62 -17 7 -43 36 -147 165 -31 38 -56 58 -83 67 -39 13 -40 13 -78 -24 -22
-21 -47 -53 -57 -72 -10 -19 -26 -34 -34 -34 -16 0 -45 41 -78 109 -9 19 -33
44 -53 57 l-35 22 -45 -20 c-44 -21 -85 -57 -104 -92 -9 -17 -24 -26 -120 -75
-54 -27 -160 -119 -174 -152 -7 -17 -29 -40 -48 -51 -19 -11 -40 -36 -48 -55
-13 -31 -17 -33 -36 -23 -12 7 -56 46 -99 88 -42 43 -148 145 -234 227 -134
128 -162 150 -189 151 -18 0 -46 8 -64 17 -18 9 -40 17 -50 17 -29 0 -64 -30
-80 -69 -9 -20 -28 -52 -44 -72 -16 -20 -29 -44 -29 -52 0 -8 -7 -20 -15 -27
-18 -15 -36 -5 -114 68 -30 27 -71 55 -91 62 -32 11 -43 10 -83 -8 -39 -17
-47 -26 -56 -60 -6 -22 -18 -45 -26 -52 -8 -7 -15 -21 -15 -31 0 -38 -24 -30
-76 26 -30 31 -54 62 -54 69 0 6 -15 23 -33 37 l-32 26 -50 -17 c-41 -14 -51
-21 -53 -43 -2 -16 -15 -35 -33 -47 -16 -12 -29 -29 -29 -37 0 -20 -29 -53
-46 -53 -15 0 -103 -97 -117 -130 -6 -14 -22 -39 -34 -56 -13 -17 -23 -37 -23
-44 0 -7 -9 -22 -20 -34 -58 -62 -91 -94 -128 -123 -40 -32 -41 -32 -77 -18
-20 9 -38 22 -40 30 -9 27 -15 40 -55 110 -21 39 -39 77 -40 86 0 8 -13 35
-28 60 -15 24 -33 64 -41 89 -7 25 -21 61 -31 81 -11 21 -22 57 -26 80 -4 24
-13 56 -20 70 -23 45 -45 251 -47 431 -2 255 23 424 79 540 18 36 35 76 39 88
8 26 12 31 108 135 41 44 79 90 86 103 6 12 16 22 21 22 5 0 30 -18 57 -41z"/>
<path d="M2394 2877 c-12 -12 -33 -30 -47 -39 -46 -32 -56 -168 -12 -168 6 0
24 -14 41 -31 40 -43 76 -59 128 -59 25 0 57 -5 73 -11 15 -6 62 -13 103 -15
59 -4 90 0 145 17 171 54 180 60 260 155 43 51 44 75 4 125 -27 34 -36 39 -73
39 -34 0 -51 -7 -83 -35 -23 -19 -51 -35 -64 -35 -13 0 -38 -14 -55 -31 -31
-30 -37 -31 -108 -31 -91 1 -146 27 -232 110 -41 38 -52 39 -80 9z"/>
</g>
</svg>
